{
	"asset": {
		"generator": "Blocks 4.0.1RC0 SVR",
		"version": "1.1",
		"copyright": "Unknown"
	},
	"buffers": {
		"model": {
			"byteLength": 97472,
			"type": "arraybuffer",
			"uri": "model.bin"
		}
	},
	"accessors": {
		"accessor_position_m0-PolyPaper22_-162618": {
			"bufferView": "vec3BufferView",
			"byteOffset": 0,
			"byteStride": 12,
			"componentType": 5126,
			"count": 18,
			"max": [ -0.4733806, -2.744111, -0.6627595 ],
			"min": [ -0.5091826, -2.774889, -0.6860315 ],
			"type": "VEC3"
		 },
		"accessor_normal_m0-PolyPaper22_-162618": {
			"bufferView": "vec3BufferView",
			"byteOffset": 216,
			"byteStride": 12,
			"componentType": 5126,
			"count": 18,
			"max": [ 0.8630337, 0.9995655, 0.9983386 ],
			"min": [ -0.8668764, -0.5018495, -0.9983386 ],
			"type": "VEC3"
		 },
		"accessor_color_m0-PolyPaper22_-162618": {
			"bufferView": "vec4BufferView",
			"byteOffset": 0,
			"byteStride": 16,
			"componentType": 5126,
			"count": 18,
			"max": [ 0.9568627, 0.2627451, 0.2117647, 1 ],
			"min": [ 0.9568627, 0.2627451, 0.2117647, 1 ],
			"type": "VEC4"
		 },
		"accessor_indices_0_m0-PolyPaper22_-162618": {
			"bufferView": "ushortBufferView",
			"byteOffset": 0,
			"byteStride": 0,
			"componentType": 5123,
			"count": 24,
			"max": [ 17 ],
			"min": [ 0 ],
			"type": "SCALAR"
		 },
		"accessor_position_m1-PolyGlass24_-162624": {
			"bufferView": "vec3BufferView",
			"byteOffset": 432,
			"byteStride": 12,
			"componentType": 5126,
			"count": 24,
			"max": [ -0.5710356, -2.490618, -0.6629651 ],
			"min": [ -1.687583, -3.250052, -0.8012959 ],
			"type": "VEC3"
		 },
		"accessor_normal_m1-PolyGlass24_-162624": {
			"bufferView": "vec3BufferView",
			"byteOffset": 720,
			"byteStride": 12,
			"componentType": 5126,
			"count": 24,
			"max": [ 0.9987633, 0.9995657, 0.9983385 ],
			"min": [ -0.9987634, -0.9995656, -0.9983386 ],
			"type": "VEC3"
		 },
		"accessor_color_m1-PolyGlass24_-162624": {
			"bufferView": "vec4BufferView",
			"byteOffset": 288,
			"byteStride": 16,
			"componentType": 5126,
			"count": 24,
			"max": [ 1, 1, 1, 1 ],
			"min": [ 1, 1, 1, 1 ],
			"type": "VEC4"
		 },
		"accessor_indices_0_m1-PolyGlass24_-162624": {
			"bufferView": "ushortBufferView",
			"byteOffset": 48,
			"byteStride": 0,
			"componentType": 5123,
			"count": 36,
			"max": [ 23 ],
			"min": [ 0 ],
			"type": "SCALAR"
		 },
		"accessor_position_m9-PolyPaper17_-162672": {
			"bufferView": "vec3BufferView",
			"byteOffset": 1008,
			"byteStride": 12,
			"componentType": 5126,
			"count": 2210,
			"max": [ -0.2894948, -1.640312, -0.6483544 ],
			"min": [ -1.985133, -3.408505, -1.926661 ],
			"type": "VEC3"
		 },
		"accessor_normal_m9-PolyPaper17_-162672": {
			"bufferView": "vec3BufferView",
			"byteOffset": 27528,
			"byteStride": 12,
			"componentType": 5126,
			"count": 2210,
			"max": [ 0.9998244, 0.9995659, 0.9999095 ],
			"min": [ -0.9998242, -0.9995659, -0.9999095 ],
			"type": "VEC3"
		 },
		"accessor_color_m9-PolyPaper17_-162672": {
			"bufferView": "vec4BufferView",
			"byteOffset": 672,
			"byteStride": 16,
			"componentType": 5126,
			"count": 2210,
			"max": [ 0.9568627, 0.8470588, 0.8627451, 1 ],
			"min": [ 0.1019608, 0.1019608, 0.1019608, 1 ],
			"type": "VEC4"
		 },
		"accessor_indices_0_m9-PolyPaper17_-162672": {
			"bufferView": "ushortBufferView",
			"byteOffset": 120,
			"byteStride": 0,
			"componentType": 5123,
			"count": 3636,
			"max": [ 2209 ],
			"min": [ 0 ],
			"type": "SCALAR"
		 }
	},
	"bufferViews": {
		"ushortBufferView": {
			"buffer": "model",
			"byteLength": 7392,
			"byteOffset": 0,
			"target": 34963
		},
		"vec3BufferView": {
			"buffer": "model",
			"byteLength": 54048,
			"byteOffset": 7392,
			"target": 34962
		},
		"vec4BufferView": {
			"buffer": "model",
			"byteLength": 36032,
			"byteOffset": 61440,
			"target": 34962
		}
	},
	"meshes": {
		"mesh_m0-PolyPaper22_-162618": {
			"name": "mesh_m0-PolyPaper22_-162618",
			"primitives": [
				{
					"attributes": {
						"POSITION": "accessor_position_m0-PolyPaper22_-162618",
						"NORMAL": "accessor_normal_m0-PolyPaper22_-162618",
						"COLOR": "accessor_color_m0-PolyPaper22_-162618"
					},
					"indices": "accessor_indices_0_m0-PolyPaper22_-162618",
					"material": "material_mat22",
					"mode": 4
				}
			]
		},
		"mesh_m1-PolyGlass24_-162624": {
			"name": "mesh_m1-PolyGlass24_-162624",
			"primitives": [
				{
					"attributes": {
						"POSITION": "accessor_position_m1-PolyGlass24_-162624",
						"NORMAL": "accessor_normal_m1-PolyGlass24_-162624",
						"COLOR": "accessor_color_m1-PolyGlass24_-162624"
					},
					"indices": "accessor_indices_0_m1-PolyGlass24_-162624",
					"material": "material_mat24",
					"mode": 4
				}
			]
		},
		"mesh_m9-PolyPaper17_-162672": {
			"name": "mesh_m9-PolyPaper17_-162672",
			"primitives": [
				{
					"attributes": {
						"POSITION": "accessor_position_m9-PolyPaper17_-162672",
						"NORMAL": "accessor_normal_m9-PolyPaper17_-162672",
						"COLOR": "accessor_color_m9-PolyPaper17_-162672"
					},
					"indices": "accessor_indices_0_m9-PolyPaper17_-162672",
					"material": "material_mat17",
					"mode": 4
				}
			]
		}
	},
	"shaders": {
		"vertex_mat22": {
			"type": 35633,
			"uri": "https://vr.google.com/shaders/w/vs.glsl"
		},
		"fragment_mat22": {
			"type": 35632,
			"uri": "https://vr.google.com/shaders/w/fs.glsl"
		},
		"vertex_mat24": {
			"type": 35633,
			"uri": "https://vr.google.com/shaders/w/glassVS.glsl"
		},
		"fragment_mat24": {
			"type": 35632,
			"uri": "https://vr.google.com/shaders/w/glassFS.glsl"
		},
		"vertex_mat17": {
			"type": 35633,
			"uri": "https://vr.google.com/shaders/w/vs.glsl"
		},
		"fragment_mat17": {
			"type": 35632,
			"uri": "https://vr.google.com/shaders/w/fs.glsl"
		},
		"vertex_mat13": {
			"type": 35633,
			"uri": "https://vr.google.com/shaders/w/vs.glsl"
		},
		"fragment_mat13": {
			"type": 35632,
			"uri": "https://vr.google.com/shaders/w/fs.glsl"
		}
	},
	"programs": {
		"program_mat22": {
			"attributes": [
				"a_position",
				"a_normal",
				"a_color"				
			],
			"vertexShader": "vertex_mat22",
			"fragmentShader": "fragment_mat22"
		},
		"program_mat24": {
			"attributes": [
				"a_position",
				"a_normal",
				"a_color"				
			],
			"vertexShader": "vertex_mat24",
			"fragmentShader": "fragment_mat24"
		},
		"program_mat17": {
			"attributes": [
				"a_position",
				"a_normal",
				"a_color"				
			],
			"vertexShader": "vertex_mat17",
			"fragmentShader": "fragment_mat17"
		},
		"program_mat13": {
			"attributes": [
				"a_position",
				"a_normal",
				"a_color"				
			],
			"vertexShader": "vertex_mat13",
			"fragmentShader": "fragment_mat13"
		}
	},
	"techniques": {
		"technique_mat22": {
			"program": "program_mat22",
			"extras": {"gvrss" : "https://vr.google.com/shaders/w/gvrss/paper.json"},
			"parameters": {
				"position": {
					"type": 35665,
					"semantic": "POSITION"
				},
				"normal": {
					"type": 35665,
					"semantic": "NORMAL"
				},
				"color": {
					"type": 35666,
					"semantic": "COLOR"
				},
				"modelViewMatrix": {
					"type": 35676,
					"semantic": "MODELVIEW"
				},
				"projectionMatrix": {
					"type": 35676,
					"semantic": "PROJECTION"
				},
				"normalMatrix": {
					"type": 35675,
					"semantic": "MODELVIEWINVERSETRANSPOSE"
				},
				"color": {
					"type": 35666
				},
				"roughness": {
					"type": 5126
				},
				"metallic": {
					"type": 5126
				},
				"light0Pos": {
					"type": 35666
				},
				"light0Color": {
					"type": 35666
				},
				"light1Pos": {
					"type": 35666
				},
				"light1Color": {
					"type": 35666
				}				
			},
			"attributes": {
				"a_position": "position",
				"a_normal": "normal",
				"a_color": "color"				
			},
			"uniforms": {
				"u_modelViewMatrix": "modelViewMatrix",
				"u_projectionMatrix": "projectionMatrix",
				"u_normalMatrix": "normalMatrix",
				"u_color": "color",
				"u_roughness": "roughness",
				"u_metallic": "metallic",
				"u_light0Pos": "light0Pos",
				"u_light0Color": "light0Color",
				"u_light1Pos": "light1Pos",
				"u_light1Color": "light1Color"				
			},
			"states": {
				"enable": [
					2929,
					2884
				],
				"functions": {
					"cullFace": [1029]
				}
			}
		},
		"technique_mat24": {
			"program": "program_mat24",
			"extras": {"gvrss" : "https://vr.google.com/shaders/w/gvrss/glass.json"},
			"parameters": {
				"position": {
					"type": 35665,
					"semantic": "POSITION"
				},
				"normal": {
					"type": 35665,
					"semantic": "NORMAL"
				},
				"color": {
					"type": 35666,
					"semantic": "COLOR"
				},
				"modelViewMatrix": {
					"type": 35676,
					"semantic": "MODELVIEW"
				},
				"projectionMatrix": {
					"type": 35676,
					"semantic": "PROJECTION"
				},
				"normalMatrix": {
					"type": 35675,
					"semantic": "MODELVIEWINVERSETRANSPOSE"
				},
				"color": {
					"type": 35666
				},
				"roughness": {
					"type": 5126
				},
				"metallic": {
					"type": 5126
				},
				"light0Pos": {
					"type": 35666
				},
				"light0Color": {
					"type": 35666
				},
				"light1Pos": {
					"type": 35666
				},
				"light1Color": {
					"type": 35666
				}				
			},
			"attributes": {
				"a_position": "position",
				"a_normal": "normal",
				"a_color": "color"				
			},
			"uniforms": {
				"u_modelViewMatrix": "modelViewMatrix",
				"u_projectionMatrix": "projectionMatrix",
				"u_normalMatrix": "normalMatrix",
				"u_color": "color",
				"u_roughness": "roughness",
				"u_metallic": "metallic",
				"u_light0Pos": "light0Pos",
				"u_light0Color": "light0Color",
				"u_light1Pos": "light1Pos",
				"u_light1Color": "light1Color"				
			},
			"states": {
				"enable": [
					2929,
					3042
				],
				"functions": {
					"blendFuncSeparate": [775, 774, 773, 772],
					"depthMask": [true]
				}
			}
		},
		"technique_mat17": {
			"program": "program_mat17",
			"extras": {"gvrss" : "https://vr.google.com/shaders/w/gvrss/paper.json"},
			"parameters": {
				"position": {
					"type": 35665,
					"semantic": "POSITION"
				},
				"normal": {
					"type": 35665,
					"semantic": "NORMAL"
				},
				"color": {
					"type": 35666,
					"semantic": "COLOR"
				},
				"modelViewMatrix": {
					"type": 35676,
					"semantic": "MODELVIEW"
				},
				"projectionMatrix": {
					"type": 35676,
					"semantic": "PROJECTION"
				},
				"normalMatrix": {
					"type": 35675,
					"semantic": "MODELVIEWINVERSETRANSPOSE"
				},
				"color": {
					"type": 35666
				},
				"roughness": {
					"type": 5126
				},
				"metallic": {
					"type": 5126
				},
				"light0Pos": {
					"type": 35666
				},
				"light0Color": {
					"type": 35666
				},
				"light1Pos": {
					"type": 35666
				},
				"light1Color": {
					"type": 35666
				}				
			},
			"attributes": {
				"a_position": "position",
				"a_normal": "normal",
				"a_color": "color"				
			},
			"uniforms": {
				"u_modelViewMatrix": "modelViewMatrix",
				"u_projectionMatrix": "projectionMatrix",
				"u_normalMatrix": "normalMatrix",
				"u_color": "color",
				"u_roughness": "roughness",
				"u_metallic": "metallic",
				"u_light0Pos": "light0Pos",
				"u_light0Color": "light0Color",
				"u_light1Pos": "light1Pos",
				"u_light1Color": "light1Color"				
			},
			"states": {
				"enable": [
					2929,
					2884
				],
				"functions": {
					"cullFace": [1029]
				}
			}
		},
		"technique_mat13": {
			"program": "program_mat13",
			"extras": {"gvrss" : "https://vr.google.com/shaders/w/gvrss/paper.json"},
			"parameters": {
				"position": {
					"type": 35665,
					"semantic": "POSITION"
				},
				"normal": {
					"type": 35665,
					"semantic": "NORMAL"
				},
				"color": {
					"type": 35666,
					"semantic": "COLOR"
				},
				"modelViewMatrix": {
					"type": 35676,
					"semantic": "MODELVIEW"
				},
				"projectionMatrix": {
					"type": 35676,
					"semantic": "PROJECTION"
				},
				"normalMatrix": {
					"type": 35675,
					"semantic": "MODELVIEWINVERSETRANSPOSE"
				},
				"color": {
					"type": 35666
				},
				"roughness": {
					"type": 5126
				},
				"metallic": {
					"type": 5126
				},
				"light0Pos": {
					"type": 35666
				},
				"light0Color": {
					"type": 35666
				},
				"light1Pos": {
					"type": 35666
				},
				"light1Color": {
					"type": 35666
				}				
			},
			"attributes": {
				"a_position": "position",
				"a_normal": "normal",
				"a_color": "color"				
			},
			"uniforms": {
				"u_modelViewMatrix": "modelViewMatrix",
				"u_projectionMatrix": "projectionMatrix",
				"u_normalMatrix": "normalMatrix",
				"u_color": "color",
				"u_roughness": "roughness",
				"u_metallic": "metallic",
				"u_light0Pos": "light0Pos",
				"u_light0Color": "light0Color",
				"u_light1Pos": "light1Pos",
				"u_light1Color": "light1Color"				
			},
			"states": {
				"enable": [
					2929,
					2884
				],
				"functions": {
					"cullFace": [1029]
				}
			}
		}
	},
	"materials": {
		"material_mat22": {
			"technique": "technique_mat22",
			"values": {
				"color": [0.6196079, 0.6196079, 0.6196079, 1],
				"roughness": 1,
				"metallic": 0,
				"light0Pos": [-0.02, 4.11, -0.54, 0],
				"light0Color": [1.28, 1.232075, 1.101177, 0],
				"light1Pos": [0.02, -4.11, 0.54, 0],
				"light1Color": [0.2941177, 0.2953672, 0.32, 0]				
			},
			"name": "material_mat22"
		},
		"material_mat24": {
			"technique": "technique_mat24",
			"values": {
				"color": [0.8392157, 0.8392157, 0.8392157, 0.2509804],
				"roughness": 0,
				"metallic": 0,
				"light0Pos": [-0.02, 4.11, -0.54, 0],
				"light0Color": [1.28, 1.232075, 1.101177, 0],
				"light1Pos": [0.02, -4.11, 0.54, 0],
				"light1Color": [0.2941177, 0.2953672, 0.32, 0]				
			},
			"name": "material_mat24"
		},
		"material_mat17": {
			"technique": "technique_mat17",
			"values": {
				"color": [0.2705882, 0.3529412, 0.3921569, 1],
				"roughness": 1,
				"metallic": 0,
				"light0Pos": [-0.02, 4.11, -0.54, 0],
				"light0Color": [1.28, 1.232075, 1.101177, 0],
				"light1Pos": [0.02, -4.11, 0.54, 0],
				"light1Color": [0.2941177, 0.2953672, 0.32, 0]				
			},
			"name": "material_mat17"
		},
		"material_mat13": {
			"technique": "technique_mat13",
			"values": {
				"color": [1, 0.5960785, 0, 1],
				"roughness": 1,
				"metallic": 0,
				"light0Pos": [-0.02, 4.11, -0.54, 0],
				"light0Color": [1.28, 1.232075, 1.101177, 0],
				"light1Pos": [0.02, -4.11, 0.54, 0],
				"light1Color": [0.2941177, 0.2953672, 0.32, 0]				
			},
			"name": "material_mat13"
		}
	},
	"nodes": {
		"node_MeshObject1000380416-PolyPaper22": {
			"name": "node_MeshObject1000380416-PolyPaper22",
			"meshes": [
				"mesh_m0-PolyPaper22_-162618"
			],
			"matrix": [1, 0, 0, 0, 0, 1, 0, 0, 0, 0, 1, 0, 0, 0, 0, 1]
		},
		"node_MeshObject1572459520-PolyGlass24": {
			"name": "node_MeshObject1572459520-PolyGlass24",
			"meshes": [
				"mesh_m1-PolyGlass24_-162624"
			],
			"matrix": [1, 0, 0, 0, 0, 1, 0, 0, 0, 0, 1, 0, 0, 0, 0, 1]
		},
		"node_MeshObject-1027984384-PolyPaper17": {
			"name": "node_MeshObject-1027984384-PolyPaper17",
			"meshes": [
				"mesh_m9-PolyPaper17_-162672"
			],
			"matrix": [1, 0, 0, 0, 0, 1, 0, 0, 0, 0, 1, 0, 0, 0, 0, 1]
		}
	},
	"scene": "defaultScene",
	"scenes": {
		"defaultScene": {
			"nodes": [
				"node_MeshObject1000380416-PolyPaper22",
				"node_MeshObject1572459520-PolyGlass24",
				"node_MeshObject-1027984384-PolyPaper17"
			],
			"extras": {

			}
		}
	}
}